<?xml version="1.0" encoding="utf-8"?>
<!-- Generator: Adobe Illustrator 25.2.3, SVG Export Plug-In . SVG Version: 6.00 Build 0)  -->
<svg version="1.1" id="Layer_1" xmlns="http://www.w3.org/2000/svg" xmlns:xlink="http://www.w3.org/1999/xlink" x="0px" y="0px"
	 viewBox="0 0 991 215.6" style="enable-background:new 0 0 991 215.6;" xml:space="preserve">
<style type="text/css">
	.st0{fill-rule:evenodd;clip-rule:evenodd;fill:#FFFFFF;}
	.st1{fill:#FFFFFF;}
</style>
<g id="ps5_logo">
	<path id="ps_logo" class="st0" d="M20.8,183C-1,176.8-4.7,163.9,5.3,156.5c9.2-6.9,24.9-12,24.9-12l64.7-23.1v26.3l-46.5,16.7
		c-8.2,3-9.5,7.2-2.8,9.4s18.8,1.6,27-1.4l22.3-8.1v23.6c-1.4,0.3-3,0.5-4.4,0.8C67,192.4,43.2,190.5,20.8,183z M157.2,185.7
		l72.6-25.9c8.2-3,9.5-7.1,2.8-9.3s-18.8-1.6-27,1.4L157.3,169v-27.2l2.8-0.9c10.9-3.5,22.2-5.9,33.6-7.1
		c19.6-2.2,43.7,0.3,62.6,7.5c21.3,6.7,23.7,16.7,18.3,23.5s-18.7,11.7-18.7,11.7l-98.6,35.5L157.2,185.7z M165.7,17.2
		c38.2,13.2,51.2,29.6,51.2,66.6c0,36.1-22.1,49.7-50.3,36.1V52.6c0-7.9-1.4-15.1-8.8-17.2c-5.6-1.8-9.1,3.5-9.1,11.3V215
		l-45.1-14.4V0C122.8,3.6,150.7,12,165.7,17.2L165.7,17.2z M262.7,201.3c0.1,0.5-0.1,1.1-0.5,1.4c-0.5,0.3-1.1,0.5-1.6,0.4h-3.5
		v-3.6h3.7c0.4,0,0.8,0.1,1.2,0.2C262.5,200.1,262.8,200.7,262.7,201.3z M265.2,209.5c-0.2-0.1-0.3-0.3-0.4-0.6
		c-0.1-0.3-0.1-0.7-0.1-1l-0.1-1.6c0-0.6-0.1-1.2-0.4-1.7c-0.2-0.2-0.5-0.5-0.8-0.6c0.4-0.2,0.7-0.6,1-0.9c0.3-0.6,0.5-1.3,0.5-1.9
		c0.1-1.3-0.6-2.6-1.9-3.1c-0.8-0.3-1.6-0.5-2.4-0.4h-5.8v12.7h2.2v-5.2h3.4c0.5,0,0.9,0,1.3,0.2c0.5,0.3,0.8,0.8,0.7,1.4l0.1,2
		c0,0.3,0,0.7,0.1,1c0,0.2,0.1,0.3,0.2,0.5l0.1,0.1h2.4v-0.7L265.2,209.5z M250.3,204.2c0-2.5,1-4.9,2.7-6.7
		c3.6-3.7,9.4-3.7,13.1-0.2c0.1,0.1,0.1,0.1,0.2,0.2c3.7,3.8,3.6,9.8-0.1,13.5c-1.7,1.7-4.1,2.7-6.5,2.7c-2.5,0-4.9-1-6.6-2.8
		C251.3,209.1,250.3,206.7,250.3,204.2L250.3,204.2z M259.7,215.6c3,0,5.9-1.2,7.9-3.4c4.4-4.5,4.4-11.6,0-16.1
		c-2.1-2.1-5-3.3-7.9-3.3c-6.3,0.1-11.3,5.3-11.2,11.7c0.1,2.9,1.2,5.7,3.3,7.8C253.8,214.4,256.7,215.6,259.7,215.6L259.7,215.6z"
		/>
	<path id="ps5" class="st1" d="M970.6,172.4h-1.9v-13.2h-4.4v-1.8H975v1.8h-4.4L970.6,172.4z M983.9,168.9L983.9,168.9l4.1-11.5h3
		v15h-2v-12.5l0,0l-4.5,12.5h-1.2l-4.5-12.5l0,0v12.5h-1.9v-15h3L983.9,168.9z M945,42.9H761v49.9c0,0-0.6,19.3,23.3,19.3h112.5
		c4.4,0,8.8,0.9,12.8,2.6c6.3,2.8,13.3,8.5,13.3,20c0,10.3-5,16.2-10,19.5c-4.1,2.6-8.9,4-13.8,4H761v14h154.1c0,0,35-1.4,35-37.4
		c0-18.3-10.7-27.3-20.3-31.8c-6.2-2.9-13-4.3-19.8-4.3H798.5c-1.9,0-3.7-0.4-5.3-1.3c-2.4-1.3-5-3.8-5-8.9V56.8H945V42.9z
		 M529.4,158.1v14h78.1c9.3,0.1,18.4-3.2,25.5-9.2c7.4-6.3,11.6-15.6,11.4-25.4V78c-0.1-6.6,2.9-12.9,8-17c3.6-2.8,8-4.3,12.6-4.2
		h68.1V42.9H652c0,0-35,0.6-35,37.6v55.6c0.1,4.6-1.2,9-3.5,12.9c-3.5,5.8-9.9,9.3-16.7,9.1L529.4,158.1z M349.1,42.9v13.8h139.2
		c3.9,0,7.7,0.8,11.2,2.4c5.5,2.6,11.7,7.9,11.7,18.7c0,10.5-6.2,15.8-11.7,18.3c-3.6,1.6-7.5,2.5-11.4,2.4H384.9
		c-6.1-0.1-12.2,1.3-17.6,4c-8.6,4.3-18.1,14.5-18.1,31.2v38h26.8v-37.8c0-2.5,0.4-4.9,1.3-7.2c2.2-5.7,7.8-14.8,20.9-14.8h104.1
		c3.5,0,7-0.4,10.4-1.4c9.6-2.7,25.5-10.6,25.5-32.8c0-34.5-34.4-35-34.4-35H349.1z"/>
</g>
</svg>
