<svg xmlns="http://www.w3.org/2000/svg" viewBox="0 0 2771.12 359.17"><defs><style>.cls-1{fill:#fff;}.cls-2{fill:none;stroke:#fff;stroke-miterlimit:10;stroke-width:10px;}</style></defs><g id="Layer_2" data-name="Layer 2"><g id="Layer_1-2" data-name="Layer 1"><g id="Layer_2-2" data-name="Layer 2"><g id="Layer_1-2-2" data-name="Layer 1-2"><path class="cls-1" d="M2533.08,290.19c-10.5,0-21-.15-31.49.09-3.85.08-6.29-1-8.62-4.26-18.84-26.17-37.9-52.19-56.9-78.25-1-1.32-2-2.61-3.26-4.3l-35.68,49c-8.42,11.56-16.74,23.19-25.36,34.58a8.8,8.8,0,0,1-6,3c-10.74.3-21.5.14-33.36.14l81.83-112.41L2338.9,74.29c8.07,0,15.26.79,22.21-.18,11.34-1.59,18,3,24.22,12.28,15,22.13,31.25,43.43,47.43,65.67,1.21-1.54,2.22-2.73,3.14-4,16.93-23.24,33.91-46.45,50.72-69.79,2.06-2.86,4.16-4.15,7.75-4.07,10.44.23,20.88.08,32.24.08-1.65,2.43-2.68,4.06-3.81,5.61q-34.05,46.77-68.21,93.46c-2.52,3.43-2.37,5.55.1,8.92q37.92,51.66,75.52,103.56c.86,1.19,1.91,2.24,2.87,3.36Z"/><path class="cls-1" d="M197,0c7.28,1.32,14.61,2.45,21.84,4A178.23,178.23,0,0,1,274,26.29c-.35.54-.55,1-.67,1-19.2-2.82-37.44,1.36-55.06,8.31C206.36,40.29,194.9,46,183.38,51.55c-2.53,1.21-4.31,1.32-6.83,0-20.37-11.06-41.41-20.64-64.61-23.82-8.38-1.15-17.06-.19-26-1.17,1.44-.92,2.84-1.91,4.33-2.75,22-12.49,45.36-20.52,70.58-23A8.29,8.29,0,0,0,163,0Z"/><path class="cls-1" d="M179.59,359.17Q115,358.55,64.51,317.48c-7.21-5.87-9.25-13.09-8-21.67,2.07-14,8.69-26.08,16.13-37.72,21.21-33.14,47.73-61.76,76.52-88.37,8.9-8.23,18.44-15.78,27.59-23.75,2.33-2,4-1.91,6.42,0,39.53,32,74.83,68,103,110.46,7.92,11.93,14.77,24.48,17.14,38.91,1.48,9.05-.81,16.4-8.31,22.47C261.46,345,223.17,358.78,179.59,359.17Z"/><path class="cls-1" d="M643.23,74.29h24.91c25.31,0,50.63-.08,75.93,0C757.21,74.38,770,76.6,781.6,83c34.8,19.2,36.86,69.37,3.82,91.48-1.2.8-2.36,1.67-3.6,2.55,4.92,2.89,9.92,5.25,14.27,8.48,18.36,13.66,23.69,32.52,20.56,54.26-3.08,21.37-14.81,36.69-35.08,44a102.56,102.56,0,0,1-32.1,6.12c-34.45.75-68.93.28-103.39.27-.66,0-1.32-.11-2.54-.22v-95.4H595.23c1.16-1.95,1.78-3.18,2.58-4.28,5-6.87,10.07-13.64,14.9-20.6a6.88,6.88,0,0,1,6.54-3.38c7.78.21,15.57.07,24,.07Zm33.86,120.16v67H743.3a71.81,71.81,0,0,0,7.48-.26c24.79-2.25,37.25-19.05,32-43C779.66,204,768.09,195,750.4,194.59c-24.27-.59-48.58-.14-73.31-.14Zm-.45-28.35c23.1,0,45.4.3,67.68-.13,10-.2,19.51-3.18,25.83-11.91,14.05-19.44,4-45.36-19.36-50.07a57.06,57.06,0,0,0-10.91-1.06c-19.33-.1-38.65-.05-58,0-1.61,0-3.22.14-5.26.23v63Z"/><path class="cls-1" d="M827.86,182c.51-27.45,6.63-53,23.89-75.08C868,86.15,889.33,74.19,915.48,70.66c19.25-2.6,38.27-1.78,56.68,4.64,28.62,10,48.31,29.71,58.81,57.79,12.26,32.78,12.33,66.12-.3,98.84-15,38.81-50.46,62.54-92.13,63.12-23.85.33-46.5-3.71-66.18-18-24.72-18-38.37-42.69-42.54-72.71C828.79,196.93,828.49,189.45,827.86,182Zm177.3-3.18c-.33-3.56-.68-10.54-1.71-17.43a91,91,0,0,0-3.7-15c-9.54-28.92-32.36-45.95-63-47.2-30.33-1.24-55.47,14.28-66.5,42.24-10.47,26.53-10.84,53.74-.38,80.27s30.41,41.57,59.23,43.23c29.24,1.68,51.84-9.81,65.95-36,7.83-14.5,10-30.43,10.11-50.1Z"/><path class="cls-1" d="M1688.41,202.19v87.72h-32.87V74.65c1.45-.12,2.87-.34,4.3-.35,31.48,0,63-.15,94.44,0,15,.1,29.5,3,42.62,10.64,20.57,12,28.77,30.6,27.34,53.7-1.34,21.75-11.45,37.77-32.13,46.33a17.16,17.16,0,0,0-1.63.89c.25.29.33.49.47.54,19.63,7,26.86,22.24,28,41.76.83,14.57,1.84,29.15,3.51,43.64.71,6.12,3.34,12,5.19,18.34-10.23,0-20.68.16-31.1-.17-1.52,0-4-2.23-4.28-3.76-1.85-9-3.6-18.14-4.59-27.31-1.09-10-.59-20.3-2.11-30.26-2.81-18.42-11.79-26.3-31.29-26.91-21.3-.66-42.64-.14-64-.12A9.42,9.42,0,0,0,1688.41,202.19Zm.28-28.77c23.44,0,46.59.91,69.64-.28,19.9-1,31.87-15.71,31.87-35.82,0-19.27-11.12-32-31.5-33.47-19.06-1.33-38.25-.73-57.38-1h-12.63Z"/><path class="cls-1" d="M1265.91,218.64h32.88c.29,2.76.5,5.66.93,8.52,2.65,17.69,12,30,29.39,35.41a89.4,89.4,0,0,0,53.11.58c18.7-5.61,28-22,23.41-39.74-1.87-7.22-6.07-13.08-12.78-15.69-12-4.68-24.38-8.55-36.78-12.16-15-4.37-30.47-7.15-45.1-12.4-17.2-6.18-31-17.25-36.12-35.83-8.23-30.07,1.19-58.47,34-70.79,31-11.66,62.67-10.77,92.67,3.62,22.83,11,32.61,31.18,33.47,56a9.13,9.13,0,0,1-.56,2c-9.84,0-19.78.08-29.72-.11-1,0-2.36-1.5-2.74-2.59-.7-2-.73-4.23-1.16-6.33-3.11-15.39-12.26-25-27.6-28.69-14.3-3.39-28.7-3.91-43-.53-19.06,4.51-28.08,19.69-22.66,37.46,2.78,9.08,9.47,14.57,17.83,17.52a302.62,302.62,0,0,0,33,9.54c16.2,3.74,32.49,6.88,47.83,13.68,22.85,10.13,35.3,27.21,35.13,52.37-.17,26.2-12.72,44.83-36.54,55.68-18.19,8.28-37.56,9.69-57.18,8.68-16.43-.84-32.34-4-46.94-12.06-20.39-11.26-31-28.93-33.94-51.58-.41-3.13-.61-6.28-.85-9.42A29.9,29.9,0,0,1,1265.91,218.64Z"/><path class="cls-1" d="M2092.13,218.6h32.66c.58,4.25.89,8.37,1.73,12.38,3.21,15.39,12.2,26.14,27.17,31.06,18.81,6.2,38,6.77,56.83.27,16.21-5.58,24-19,21.78-35.86-1.25-9.42-6.47-16.47-15-19.64-13-4.82-26.51-8.45-39.89-12.31s-27.26-6.36-40.24-11.25c-19.89-7.5-34.47-20.75-37.9-43-4.9-31.76,9-55.47,39.65-65.32a121.42,121.42,0,0,1,85,3.34c23.59,9.65,38.57,34.63,36.94,59.54h-32.29c-.74-3.61-1.35-7.2-2.21-10.72-3.42-14-12.18-22.94-26.24-26.41-15.61-3.86-31.3-4.5-46.85.09-12.5,3.69-20.05,12.36-21,23.32-1.19,14,3.83,23.32,16.45,29.53a76.6,76.6,0,0,0,14.83,5.77c13.21,3.35,26.72,5.61,39.8,9.37,11.76,3.37,23.71,7,34.52,12.56,22.85,11.75,32.48,32.75,28.8,58.17-3.72,25.74-19.3,41.6-43,49.33-29.36,9.58-59.15,9.12-88.11-1.91S2091.71,251.6,2092.13,218.6Z"/><path class="cls-1" d="M1467.85,74.59H1621.9v29.13H1501.09v62.52H1608v27.91H1501v66h120.88v29.74h-154Z"/><path class="cls-1" d="M1920.54,74.58h153.78v29.06H1953.74v62.59h106.74V194H1953.71v66h120.75v30H1920.54Z"/><path class="cls-1" d="M1025,290.19l81.84-112.41-75-103c1.85-.21,3.06-.48,4.28-.48,9.5,0,19-.23,28.48.13a9.38,9.38,0,0,1,6.4,3.29c17.21,23.24,34.19,46.66,51.24,70,.94,1.3,2,2.55,3.29,4.27,7.79-10.66,15.32-21,22.83-31.27,10.48-14.38,20.85-28.84,31.53-43.06a9.43,9.43,0,0,1,6.44-3.26c10.6-.34,21.22-.15,33-.15-1.64,2.31-2.61,3.73-3.63,5.12q-34.2,47-68.47,93.89c-2.41,3.28-2.62,5.43,0,8.92q38,51.62,75.53,103.54c.87,1.18,1.67,2.41,3.07,4.43-7.93,0-15.26-.82-22.33.19-11.2,1.6-17.59-3-23.78-12.09-16.52-24.13-34.2-47.47-51.42-71.12-.77-1.06-1.62-2.06-2.75-3.48-1.15,1.44-2.17,2.64-3.09,3.9-18.71,25.66-37.53,51.23-56,77.07-3.08,4.31-6.21,5.9-11.42,5.66C1045.38,289.88,1035.74,290.19,1025,290.19Z"/><path class="cls-1" d="M525.94,203.48l-35,48.09c-8.62,11.83-17.14,23.72-26,35.39a8.82,8.82,0,0,1-6,3.09c-10.78.31-21.58.14-33.16.14,1.36-2,2.27-3.5,3.29-4.91q37.41-51.4,74.94-102.73c2.56-3.49,2.87-5.66.16-9.34-23-31.18-45.68-62.54-68.47-93.86-1-1.32-1.87-2.69-3.24-4.67,2-.16,3.36-.37,4.75-.38,9.16,0,18.33.15,27.49-.09,3.42-.09,5.4,1.16,7.35,3.85q25.11,34.75,50.46,69.35c1,1.43,2.17,2.82,3.57,4.62l30.77-42.21c7.83-10.75,15.62-21.53,23.53-32.21,1-1.35,2.63-3.12,4-3.15,11.43-.25,22.88-.15,35.54-.15L544.66,177.77c27,37.14,54.08,74.3,81.84,112.42h-20c-5.66,0-12.19,1.61-16.73-.68s-7.09-8.47-10.41-13q-25.12-34.44-50.22-68.91C528.22,206.38,527.29,205.23,525.94,203.48Z"/><path class="cls-1" d="M321.93,288.37c4.58-20.83-2-39.44-9.73-57.71-16.56-39.27-40.05-74.46-65.38-108.5C241.08,114.44,235,107,228.77,99c18-17.32,35.8-34.7,58.93-45.3a44.21,44.21,0,0,1,6.1-2.16c6.48-1.89,11.81-1.33,17,4.3,36.46,39.81,52.81,86.41,48.41,140.13-2.68,32.7-14.18,62.22-33.29,88.84-.78,1.07-1.58,2.13-2.43,3.14C323.29,288.15,322.85,288.13,321.93,288.37Z"/><path class="cls-1" d="M130.71,99.07c-10.28,13.74-20.85,27.2-30.71,41.17-21.19,30-41,61-54.13,95.5-4.43,11.66-6.81,24.18-9.19,36.49-1,5.08.49,10.64.89,16.68-1.18-1.35-2.06-2.25-2.81-3.24C-16.35,217.66-10.4,118.73,48,56.92c6.29-6.65,12.35-7.59,20-4.83a90.49,90.49,0,0,1,12.67,5.79C95,65.76,122.46,88.54,130.71,99.07Z"/><path class="cls-1" d="M1887.15,290h-32.66V74.6h32.66Z"/><path class="cls-1" d="M2595.81,218.6h32.66c.58,4.25.89,8.37,1.73,12.38,3.21,15.39,12.2,26.14,27.17,31.06,18.81,6.2,38,6.77,56.83.27,16.21-5.58,24-19,21.78-35.86-1.25-9.42-6.47-16.47-15-19.64-13-4.82-26.51-8.45-39.89-12.31s-27.26-6.36-40.24-11.25c-19.89-7.5-34.47-20.75-37.9-43-4.9-31.76,9-55.47,39.65-65.32a121.42,121.42,0,0,1,85,3.34c23.59,9.65,38.57,34.63,36.94,59.54h-32.29c-.74-3.61-1.35-7.2-2.21-10.72-3.42-14-12.18-22.94-26.24-26.41-15.61-3.86-31.3-4.5-46.85.09-12.5,3.69-20,12.36-21,23.32-1.19,14,3.83,23.32,16.45,29.53a76.6,76.6,0,0,0,14.83,5.77c13.21,3.35,26.72,5.61,39.8,9.37,11.76,3.37,23.71,7,34.52,12.56,22.85,11.75,32.48,32.75,28.8,58.17-3.72,25.74-19.3,41.6-43,49.33-29.36,9.58-59.15,9.12-88.11-1.91S2595.39,251.6,2595.81,218.6Z"/><line class="cls-2" x1="2561.04" y1="68.51" x2="2561.04" y2="289.89"/></g></g></g></g></svg>