<svg xmlns="http://www.w3.org/2000/svg" viewBox="0 0 181.75 91"><defs><style>.cls-1{fill:#fff;}.cls-2{fill:#1a1818;}</style></defs><g id="Layer_2" data-name="Layer 2"><g id="Layer_1-2" data-name="Layer 1"><rect class="cls-1" x="0.75" width="181" height="91"/><g id="Group_404" data-name="Group 404"><g id="Group_275" data-name="Group 275"><path id="Path_243" data-name="Path 243" class="cls-1" d="M181.75.23H0V90.86H181.75Z"/><g id="Group_257" data-name="Group 257"><g id="Group_254" data-name="Group 254"><path id="Path_244" data-name="Path 244" class="cls-2" d="M180.75,1.2V89.89H.88V1.2H180.75"/></g><rect id="Rectangle_182" data-name="Rectangle 182" class="cls-1" x="3.83" y="4.36" width="52.34" height="14.7"/><rect id="Rectangle_183" data-name="Rectangle 183" class="cls-1" x="3.81" y="22.27" width="52.37" height="54.06"/><g id="Group_255" data-name="Group 255"><path id="Path_245" data-name="Path 245" class="cls-1" d="M3.82,86.69V79.51H14.33v1.68H8v1h5.32v1.67H8V85h6.53v1.67Z"/><path id="Path_246" data-name="Path 246" class="cls-1" d="M23.51,81.6a.81.81,0,0,0-.61-.48A3.7,3.7,0,0,0,21.81,81c-.93,0-1.35.15-1.35.41,0,1.07,7.42.4,7.42,3,0,1.66-2.5,2.48-6,2.48s-5.62-1.11-5.71-2.4h4.05a1,1,0,0,0,.69.56,3.53,3.53,0,0,0,1.2.18c1.06,0,1.76-.18,1.76-.52,0-1.09-7.42-.35-7.42-3.08,0-1.53,2.37-2.29,5.59-2.29,3.58,0,5.21,1,5.52,2.27Z"/><path id="Path_247" data-name="Path 247" class="cls-1" d="M34.2,82.63h1.66c1.31,0,2-.19,2-.69s-.72-.75-1.7-.75h-2Zm0,1.56v2.5H30V79.51h6.08c4.29,0,5.71.66,5.71,2,0,.83-.66,1.52-2.16,1.76,1.36.28,2.18.45,2.18,1.9,0,.93,0,1.25.45,1.25v.22H38a2.84,2.84,0,0,1-.21-1.25c0-1-.28-1.25-2.25-1.25Z"/><path id="Path_248" data-name="Path 248" class="cls-1" d="M48.59,81.19v1.2h1.76c.84,0,1.45-.21,1.45-.62,0-.57-.83-.58-1.72-.58Zm0,2.5V85h1.84c1,0,1.83-.13,1.83-.66s-1-.67-2.33-.67Zm-4.22,3V79.51h6.16c2.9,0,5.21.39,5.21,1.81,0,.74-.86,1.28-1.69,1.56,1.4.2,2.15.88,2.15,1.65,0,1.6-2.2,2.16-5.55,2.16Z"/></g><path id="Path_249" data-name="Path 249" class="cls-2" d="M8.18,35.39l40.51-10.1,3.11,10.8-13,3.24,8.73,30.34L33,73.28,24.3,43l-13,3.24Z"/><g id="Group_256" data-name="Group 256"><path id="Path_250" data-name="Path 250" class="cls-2" d="M43.88,7.54h3.44l4,4.54-.14-1.9V7.54h3.52v8.32H51.25l-4-4.53.07,2,.07,2.57H43.88Z"/><path id="Path_251" data-name="Path 251" class="cls-2" d="M31.49,7.54h9.12V9.47H35.15v1.2h4.62v1.95H35.15v1.3h5.68v1.94H31.49Z"/><path id="Path_252" data-name="Path 252" class="cls-2" d="M18.66,7.54h9.13V9.47H22.33v1.2h4.61v1.95H22.33v1.3H28v1.94H18.66Z"/><path id="Path_253" data-name="Path 253" class="cls-2" d="M5.28,7.54H15.54V9.72H12.25v6.14H8.58V9.72H5.28Z"/></g></g></g></g><rect class="cls-1" x="58.75" y="4" width="119" height="83"/><path d="M90,13.24h2.77l1.94,6.18,1.9-6.18h2.7l-3.19,8.59H93.24Z"/><path d="M100.3,13.24h2.38v1.62H100.3Zm0,2.37h2.38v6.22H100.3Z"/><path d="M103.91,18.73a3.11,3.11,0,0,1,1-2.34,4.18,4.18,0,0,1,5.42.16,3.1,3.1,0,0,1,.77,2.15,3.13,3.13,0,0,1-1,2.35,3.65,3.65,0,0,1-2.63.92,3.7,3.7,0,0,1-2.43-.76A3.07,3.07,0,0,1,103.91,18.73Zm2.39,0a1.92,1.92,0,0,0,.34,1.23,1.06,1.06,0,0,0,.85.4,1.05,1.05,0,0,0,.84-.39,2,2,0,0,0,.34-1.26,1.88,1.88,0,0,0-.34-1.21,1,1,0,0,0-.83-.39,1.08,1.08,0,0,0-.86.4A1.87,1.87,0,0,0,106.3,18.73Z"/><path d="M112.29,13.24h2.39v8.59h-2.39Z"/><path d="M123.11,19.31h-4.78a1.6,1.6,0,0,0,.31.85,1.14,1.14,0,0,0,.91.41,1.31,1.31,0,0,0,.66-.18,1.46,1.46,0,0,0,.42-.39l2.35.22a3.36,3.36,0,0,1-1.3,1.34,4.77,4.77,0,0,1-2.19.41,4.49,4.49,0,0,1-1.94-.35,2.85,2.85,0,0,1-1.18-1.11,3.32,3.32,0,0,1-.46-1.78,3.14,3.14,0,0,1,.93-2.36,3.57,3.57,0,0,1,2.58-.9,4.58,4.58,0,0,1,2.11.4A2.72,2.72,0,0,1,122.71,17a4.29,4.29,0,0,1,.4,2Zm-2.42-1.14a1.62,1.62,0,0,0-.37-1,1.18,1.18,0,0,0-1.71.15,1.73,1.73,0,0,0-.27.84Z"/><path d="M124.21,15.61h2.22v1a3.38,3.38,0,0,1,1-.89,2.61,2.61,0,0,1,1.24-.26,2,2,0,0,1,1.55.58,2.59,2.59,0,0,1,.56,1.82v4h-2.4V18.41a1.27,1.27,0,0,0-.21-.83.8.8,0,0,0-.61-.25.88.88,0,0,0-.71.33,1.91,1.91,0,0,0-.27,1.18v3h-2.38Z"/><path d="M136.85,19.39l2.27.26a3.23,3.23,0,0,1-.61,1.23,2.9,2.9,0,0,1-1.1.8,4.28,4.28,0,0,1-1.69.29,5.94,5.94,0,0,1-1.65-.19,2.91,2.91,0,0,1-1.13-.59,3,3,0,0,1-.74-1,3.4,3.4,0,0,1-.27-1.48,3.54,3.54,0,0,1,.32-1.59,2.82,2.82,0,0,1,.66-.84,3,3,0,0,1,.86-.56,4.75,4.75,0,0,1,1.78-.28,4.18,4.18,0,0,1,2.33.54A2.89,2.89,0,0,1,139,17.6l-2.25.3a1,1,0,0,0-.38-.6,1.26,1.26,0,0,0-.75-.2,1.19,1.19,0,0,0-1,.42,1.91,1.91,0,0,0-.37,1.29,1.66,1.66,0,0,0,.36,1.16,1.2,1.2,0,0,0,.93.4,1.3,1.3,0,0,0,.79-.24A1.42,1.42,0,0,0,136.85,19.39Z"/><path d="M147.13,19.31h-4.79a1.52,1.52,0,0,0,.32.85,1.13,1.13,0,0,0,.9.41,1.38,1.38,0,0,0,.67-.18,1.59,1.59,0,0,0,.41-.39l2.35.22a3.36,3.36,0,0,1-1.3,1.34,4.77,4.77,0,0,1-2.19.41,4.49,4.49,0,0,1-1.94-.35,2.91,2.91,0,0,1-1.18-1.11,3.32,3.32,0,0,1-.46-1.78,3.14,3.14,0,0,1,.93-2.36,3.59,3.59,0,0,1,2.58-.9,4.55,4.55,0,0,1,2.11.4A2.72,2.72,0,0,1,146.72,17a4.28,4.28,0,0,1,.41,2Zm-2.43-1.14a1.62,1.62,0,0,0-.37-1,1.09,1.09,0,0,0-.8-.3,1.07,1.07,0,0,0-.9.45,1.63,1.63,0,0,0-.28.84Z"/><path d="M68.08,30.46h5a2.71,2.71,0,0,1,1.91.61,2,2,0,0,1,.67,1.52,1.91,1.91,0,0,1-.48,1.31,2.24,2.24,0,0,1-.92.58,2.37,2.37,0,0,1,1.36.76A2.11,2.11,0,0,1,76,36.6a2.28,2.28,0,0,1-.31,1.2,2.24,2.24,0,0,1-.85.85,2.74,2.74,0,0,1-1,.28,11.56,11.56,0,0,1-1.19.12H68.08Zm2.67,3.36h1.16a1.33,1.33,0,0,0,.86-.21A.78.78,0,0,0,73,33a.73.73,0,0,0-.24-.58,1.3,1.3,0,0,0-.85-.21H70.75Zm0,3.38h1.36a1.48,1.48,0,0,0,1-.24.83.83,0,0,0,.28-.66.78.78,0,0,0-.27-.61,1.6,1.6,0,0,0-1-.23H70.75Z"/><path d="M77.33,30.46h2.39v8.59H77.33Z"/><path d="M81,36a3.13,3.13,0,0,1,1-2.35,3.61,3.61,0,0,1,2.59-.92,3.56,3.56,0,0,1,2.83,1.09,3.37,3.37,0,0,1-.19,4.5,4.2,4.2,0,0,1-5,.15A3,3,0,0,1,81,36Zm2.39,0a1.86,1.86,0,0,0,.34,1.23,1.11,1.11,0,0,0,1.69,0,1.94,1.94,0,0,0,.33-1.26,1.83,1.83,0,0,0-.33-1.2,1,1,0,0,0-.83-.4,1.1,1.1,0,0,0-.86.4A1.86,1.86,0,0,0,83.34,36Z"/><path d="M89,36a3.13,3.13,0,0,1,1-2.35,3.62,3.62,0,0,1,2.6-.92,3.53,3.53,0,0,1,2.82,1.09,3.38,3.38,0,0,1-.18,4.5,4.22,4.22,0,0,1-5.06.15A3,3,0,0,1,89,36Zm2.39,0a1.92,1.92,0,0,0,.34,1.23,1.07,1.07,0,0,0,.85.39,1.05,1.05,0,0,0,.84-.39,1.94,1.94,0,0,0,.33-1.26,1.83,1.83,0,0,0-.33-1.2,1,1,0,0,0-.83-.4,1.12,1.12,0,0,0-.86.4A1.92,1.92,0,0,0,91.34,36Z"/><path d="M103.8,30.46v8.59h-2.23v-.92a3.14,3.14,0,0,1-.86.79,2.41,2.41,0,0,1-1.15.27,2.24,2.24,0,0,1-1.94-1A4,4,0,0,1,97,35.87a3.45,3.45,0,0,1,.74-2.37,2.46,2.46,0,0,1,1.89-.82,2.56,2.56,0,0,1,1,.19,2.19,2.19,0,0,1,.8.56v-3Zm-2.39,5.46a1.64,1.64,0,0,0-.31-1.1,1,1,0,0,0-.79-.36.86.86,0,0,0-.69.35A1.85,1.85,0,0,0,99.34,36a1.73,1.73,0,0,0,.29,1.12.89.89,0,0,0,.71.35.94.94,0,0,0,.76-.36A1.73,1.73,0,0,0,101.41,35.92Z"/><path d="M111.43,34.84l-2.28-.24a2.67,2.67,0,0,1,.37-.94,2.09,2.09,0,0,1,.7-.6,3.09,3.09,0,0,1,.9-.28,8.12,8.12,0,0,1,1.25-.1,9.86,9.86,0,0,1,1.72.12,2.25,2.25,0,0,1,1.08.5,1.68,1.68,0,0,1,.48.75,2.63,2.63,0,0,1,.18.92v2.75a4.07,4.07,0,0,0,0,.69,3,3,0,0,0,.25.64h-2.24a2.89,2.89,0,0,1-.18-.37c0-.08,0-.22-.08-.4a3.09,3.09,0,0,1-.93.65,3.9,3.9,0,0,1-1.47.26,2.48,2.48,0,0,1-1.69-.52A1.62,1.62,0,0,1,109,37.4a1.68,1.68,0,0,1,.42-1.17,2.87,2.87,0,0,1,1.53-.68c.9-.18,1.48-.3,1.74-.37s.55-.17.85-.29a.82.82,0,0,0-.18-.61.92.92,0,0,0-.64-.18,1.6,1.6,0,0,0-.88.19A1,1,0,0,0,111.43,34.84Zm2.07,1.25a10.32,10.32,0,0,1-1,.31,2.52,2.52,0,0,0-.92.38.62.62,0,0,0-.2.44.6.6,0,0,0,.2.46.82.82,0,0,0,.58.18,1.48,1.48,0,0,0,.74-.19,1.14,1.14,0,0,0,.48-.47,1.55,1.55,0,0,0,.15-.73Z"/><path d="M117.26,32.82h2.22v1a3.25,3.25,0,0,1,1-.89,2.61,2.61,0,0,1,1.24-.27,2,2,0,0,1,1.55.59,2.57,2.57,0,0,1,.56,1.82v4h-2.4V35.62a1.29,1.29,0,0,0-.21-.83.79.79,0,0,0-.61-.24.88.88,0,0,0-.71.33,1.91,1.91,0,0,0-.27,1.18v3h-2.38Z"/><path d="M131.81,30.46v8.59h-2.23v-.92a3.12,3.12,0,0,1-.85.79,2.47,2.47,0,0,1-1.15.27,2.24,2.24,0,0,1-2-1,4.09,4.09,0,0,1-.67-2.35,3.4,3.4,0,0,1,.75-2.37,2.44,2.44,0,0,1,1.88-.82,2.53,2.53,0,0,1,1,.19,2.32,2.32,0,0,1,.81.56v-3Zm-2.39,5.46a1.64,1.64,0,0,0-.31-1.1,1,1,0,0,0-.78-.36.88.88,0,0,0-.7.35,1.85,1.85,0,0,0-.28,1.16,1.79,1.79,0,0,0,.29,1.12.9.9,0,0,0,.72.35,1,1,0,0,0,.76-.36A1.79,1.79,0,0,0,129.42,35.92Z"/><path d="M141.75,35.93V34.15h4.1v3.66a8.44,8.44,0,0,1-2.09,1.09,6.84,6.84,0,0,1-2.14.29,5.24,5.24,0,0,1-2.5-.52,3.55,3.55,0,0,1-1.49-1.55,5.17,5.17,0,0,1-.53-2.37,4.93,4.93,0,0,1,.58-2.45,3.71,3.71,0,0,1,1.7-1.57,5.46,5.46,0,0,1,2.35-.42,6.64,6.64,0,0,1,2.13.26,2.76,2.76,0,0,1,1.17.8,3.62,3.62,0,0,1,.7,1.37l-2.56.46a1.45,1.45,0,0,0-.54-.75,1.67,1.67,0,0,0-1-.25,1.74,1.74,0,0,0-1.39.6,2.92,2.92,0,0,0-.52,1.92,3,3,0,0,0,.52,2,1.85,1.85,0,0,0,1.47.6,2.59,2.59,0,0,0,.84-.13,4.21,4.21,0,0,0,.93-.44v-.81Z"/><path d="M147,36a3.13,3.13,0,0,1,1-2.35,3.62,3.62,0,0,1,2.6-.92,3.53,3.53,0,0,1,2.82,1.09,3.38,3.38,0,0,1-.18,4.5,4.22,4.22,0,0,1-5.06.15A3,3,0,0,1,147,36Zm2.39,0a1.86,1.86,0,0,0,.34,1.23,1.07,1.07,0,0,0,.85.39,1.05,1.05,0,0,0,.84-.39,1.94,1.94,0,0,0,.33-1.26,1.83,1.83,0,0,0-.33-1.2,1,1,0,0,0-.83-.4,1.12,1.12,0,0,0-.86.4A1.92,1.92,0,0,0,149.36,36Z"/><path d="M155.29,32.82h2.23v1a2.51,2.51,0,0,1,.67-.91,1.45,1.45,0,0,1,.85-.25,2.5,2.5,0,0,1,1.15.33l-.74,1.7a1.81,1.81,0,0,0-.67-.18.81.81,0,0,0-.72.39,3.87,3.87,0,0,0-.37,2v2.09h-2.4Z"/><path d="M167.7,36.53h-4.78a1.48,1.48,0,0,0,.31.85,1.13,1.13,0,0,0,.9.41,1.35,1.35,0,0,0,.67-.18,1.79,1.79,0,0,0,.41-.39l2.35.21a3.33,3.33,0,0,1-1.3,1.35,4.75,4.75,0,0,1-2.18.41,4.5,4.5,0,0,1-2-.35A2.89,2.89,0,0,1,161,37.73a3.26,3.26,0,0,1-.47-1.78,3.16,3.16,0,0,1,.93-2.37,3.59,3.59,0,0,1,2.58-.9,4.54,4.54,0,0,1,2.11.41,2.72,2.72,0,0,1,1.18,1.17,4.28,4.28,0,0,1,.41,2Zm-2.43-1.15a1.62,1.62,0,0,0-.37-1,1.09,1.09,0,0,0-.8-.3,1.05,1.05,0,0,0-.9.46,1.56,1.56,0,0,0-.28.83Z"/><path d="M68.38,54l2.52-.16a2,2,0,0,0,.34.94,1.41,1.41,0,0,0,1.17.52,1.3,1.3,0,0,0,.88-.27.8.8,0,0,0,.3-.62.75.75,0,0,0-.29-.59,3.27,3.27,0,0,0-1.36-.5,5.72,5.72,0,0,1-2.49-1.05,2.08,2.08,0,0,1-.75-1.65,2.32,2.32,0,0,1,.38-1.26,2.53,2.53,0,0,1,1.16-.92,5.28,5.28,0,0,1,2.11-.34,4.36,4.36,0,0,1,2.51.61,2.64,2.64,0,0,1,1,1.95l-2.5.15A1.34,1.34,0,0,0,73,50a1.32,1.32,0,0,0-.88-.27,1.08,1.08,0,0,0-.7.2.59.59,0,0,0-.23.48.45.45,0,0,0,.19.36,2.06,2.06,0,0,0,.89.32,10.85,10.85,0,0,1,2.49.76,2.67,2.67,0,0,1,1.1.95A2.39,2.39,0,0,1,76.17,54a2.72,2.72,0,0,1-.46,1.53,2.87,2.87,0,0,1-1.27,1,5.18,5.18,0,0,1-2.07.37,4.3,4.3,0,0,1-3-.85A3.31,3.31,0,0,1,68.38,54Z"/><path d="M84.26,54.31H79.48a1.45,1.45,0,0,0,.31.85,1.13,1.13,0,0,0,.9.41,1.35,1.35,0,0,0,.67-.18,1.45,1.45,0,0,0,.41-.39l2.35.22a3.36,3.36,0,0,1-1.3,1.34,4.72,4.72,0,0,1-2.18.41,4.5,4.5,0,0,1-2-.35,2.82,2.82,0,0,1-1.17-1.11,3.33,3.33,0,0,1-.47-1.78A3.14,3.14,0,0,1,78,51.37a3.6,3.6,0,0,1,2.59-.9,4.54,4.54,0,0,1,2.1.4A2.72,2.72,0,0,1,83.85,52a4.28,4.28,0,0,1,.41,2Zm-2.43-1.14a1.62,1.62,0,0,0-.37-1,1.16,1.16,0,0,0-1.7.15,1.63,1.63,0,0,0-.28.84Z"/><path d="M84.51,50.61h2.83l1,1.73,1.15-1.73h2.63l-2.12,3,2.27,3.26H89.48l-1.15-2-1.35,2H84.39l2.26-3.26Z"/><path d="M99.6,56.83H97.38v-1a3.51,3.51,0,0,1-1,.89,2.74,2.74,0,0,1-1.24.26,2.06,2.06,0,0,1-1.55-.59A2.56,2.56,0,0,1,93,54.57v-4h2.4V54a1.21,1.21,0,0,0,.22.83.77.77,0,0,0,.61.25.89.89,0,0,0,.7-.33,1.91,1.91,0,0,0,.27-1.18v-3H99.6Z"/><path d="M103.22,52.62l-2.28-.24a2.49,2.49,0,0,1,.38-.94,1.88,1.88,0,0,1,.7-.59,3.07,3.07,0,0,1,.9-.29,8,8,0,0,1,1.24-.09,9.78,9.78,0,0,1,1.72.12,2.16,2.16,0,0,1,1.09.5,1.76,1.76,0,0,1,.48.74,2.66,2.66,0,0,1,.17.93V55.5a3,3,0,0,0,.06.69,3.55,3.55,0,0,0,.24.64h-2.24a2.13,2.13,0,0,1-.17-.37,1.72,1.72,0,0,1-.08-.39,3.31,3.31,0,0,1-.93.64A4,4,0,0,1,103,57a2.44,2.44,0,0,1-1.69-.52,1.63,1.63,0,0,1-.57-1.27,1.68,1.68,0,0,1,.41-1.16,2.73,2.73,0,0,1,1.54-.68c.89-.18,1.47-.31,1.74-.38a7,7,0,0,0,.84-.29.84.84,0,0,0-.18-.61.89.89,0,0,0-.64-.18,1.72,1.72,0,0,0-.88.19A1.08,1.08,0,0,0,103.22,52.62Zm2.07,1.26c-.33.11-.67.22-1,.31a2.14,2.14,0,0,0-.92.38.57.57,0,0,0-.2.44.6.6,0,0,0,.19.46.84.84,0,0,0,.58.18,1.47,1.47,0,0,0,.74-.2,1.17,1.17,0,0,0,.49-.47,1.68,1.68,0,0,0,.14-.72Z"/><path d="M109.14,48.24h2.39v8.59h-2.39Z"/><path d="M116.61,48.24h8.06v2.12H122v6.47h-2.66V50.36h-2.7Z"/><path d="M126,48.24h2.38V51.4a3.52,3.52,0,0,1,1-.72,2.83,2.83,0,0,1,1.14-.21,2,2,0,0,1,1.53.59,2.56,2.56,0,0,1,.56,1.81v4h-2.4V53.41a1.27,1.27,0,0,0-.21-.83.8.8,0,0,0-.61-.25.88.88,0,0,0-.71.33,1.91,1.91,0,0,0-.27,1.18v3H126Z"/><path d="M141,54.31h-4.78a1.52,1.52,0,0,0,.31.85,1.13,1.13,0,0,0,.9.41,1.32,1.32,0,0,0,.67-.18,1.46,1.46,0,0,0,.42-.39l2.35.22a3.43,3.43,0,0,1-1.3,1.34,4.77,4.77,0,0,1-2.19.41,4.49,4.49,0,0,1-1.94-.35,2.79,2.79,0,0,1-1.18-1.11,3.32,3.32,0,0,1-.46-1.78,3.14,3.14,0,0,1,.93-2.36,3.55,3.55,0,0,1,2.58-.9,4.61,4.61,0,0,1,2.11.4A2.72,2.72,0,0,1,140.55,52a4.29,4.29,0,0,1,.4,2Zm-2.42-1.14a1.57,1.57,0,0,0-.38-1,1.06,1.06,0,0,0-.79-.3,1.09,1.09,0,0,0-.91.45,1.73,1.73,0,0,0-.27.84Z"/><path d="M142.07,50.61h2.22v.9a3.26,3.26,0,0,1,1-.8,2.69,2.69,0,0,1,1.19-.24,2.24,2.24,0,0,1,1.18.26,2.08,2.08,0,0,1,.71.78,3.44,3.44,0,0,1,1-.82,2.61,2.61,0,0,1,1.14-.22,2,2,0,0,1,1.56.59,2.62,2.62,0,0,1,.56,1.86v3.91h-2.39V53.28a1,1,0,0,0-.16-.62.72.72,0,0,0-.6-.33.84.84,0,0,0-.67.31,1.51,1.51,0,0,0-.26,1v3.21h-2.39V53.4a2.24,2.24,0,0,0-.05-.56.76.76,0,0,0-.26-.37.69.69,0,0,0-.44-.15.87.87,0,0,0-.68.31,1.56,1.56,0,0,0-.26,1v3.18h-2.39Z"/><path d="M161,54.31h-4.79a1.52,1.52,0,0,0,.32.85,1.13,1.13,0,0,0,.9.41,1.38,1.38,0,0,0,.67-.18,1.59,1.59,0,0,0,.41-.39l2.35.22a3.36,3.36,0,0,1-1.3,1.34,4.75,4.75,0,0,1-2.18.41,4.5,4.5,0,0,1-2-.35,2.91,2.91,0,0,1-1.18-1.11,3.32,3.32,0,0,1-.46-1.78,3.14,3.14,0,0,1,.93-2.36,3.59,3.59,0,0,1,2.58-.9,4.55,4.55,0,0,1,2.11.4A2.72,2.72,0,0,1,160.55,52a4.28,4.28,0,0,1,.41,2Zm-2.43-1.14a1.62,1.62,0,0,0-.37-1,1.09,1.09,0,0,0-.8-.3,1.07,1.07,0,0,0-.9.45,1.63,1.63,0,0,0-.28.84Z"/><path d="M161.63,55.1l2.37-.22a1.09,1.09,0,0,0,.41.6,1.46,1.46,0,0,0,1.44,0,.46.46,0,0,0,.21-.38.44.44,0,0,0-.27-.4,4.73,4.73,0,0,0-1-.25A9.63,9.63,0,0,1,163,54a1.89,1.89,0,0,1-.82-.62,1.71,1.71,0,0,1,0-2.06,2.07,2.07,0,0,1,1-.66,5.06,5.06,0,0,1,1.68-.22,5.54,5.54,0,0,1,1.64.17,2.14,2.14,0,0,1,.89.52,2.75,2.75,0,0,1,.58,1l-2.26.22a.78.78,0,0,0-.29-.44,1.23,1.23,0,0,0-.68-.18.93.93,0,0,0-.59.14.42.42,0,0,0-.18.35.36.36,0,0,0,.23.34,3.69,3.69,0,0,0,1,.21,7,7,0,0,1,1.77.38,2,2,0,0,1,.89.68,1.73,1.73,0,0,1,.31,1,1.91,1.91,0,0,1-.33,1,2.2,2.2,0,0,1-1,.81,4.9,4.9,0,0,1-1.9.3,4.46,4.46,0,0,1-2.43-.49A2.19,2.19,0,0,1,161.63,55.1Z"/><path d="M87.84,65.24H90.5v6.47h4.14v2.12h-6.8Z"/><path d="M97.86,69.62l-2.28-.24a2.67,2.67,0,0,1,.37-.94,2.06,2.06,0,0,1,.7-.59,3,3,0,0,1,.91-.29,7.94,7.94,0,0,1,1.24-.09,9.86,9.86,0,0,1,1.72.12,2.13,2.13,0,0,1,1.08.5,1.69,1.69,0,0,1,.49.74,2.91,2.91,0,0,1,.17.93V72.5a3,3,0,0,0,.06.69,2.48,2.48,0,0,0,.24.64h-2.24a1.57,1.57,0,0,1-.17-.37,2.3,2.3,0,0,1-.09-.39,3,3,0,0,1-.93.64,3.9,3.9,0,0,1-1.47.26A2.44,2.44,0,0,1,96,73.45,1.74,1.74,0,0,1,95.81,71a2.73,2.73,0,0,1,1.53-.68c.9-.18,1.48-.31,1.75-.38a7.69,7.69,0,0,0,.84-.29.84.84,0,0,0-.18-.61.91.91,0,0,0-.64-.18,1.69,1.69,0,0,0-.88.19A1,1,0,0,0,97.86,69.62Zm2.07,1.26c-.33.11-.67.22-1,.31a2.21,2.21,0,0,0-.92.38.6.6,0,0,0-.2.44.61.61,0,0,0,.2.46.82.82,0,0,0,.58.18,1.49,1.49,0,0,0,.74-.2,1.17,1.17,0,0,0,.49-.47,1.68,1.68,0,0,0,.14-.72Z"/><path d="M103.69,67.61h2.22v1a3.38,3.38,0,0,1,1-.89,2.61,2.61,0,0,1,1.24-.26,2,2,0,0,1,1.55.58,2.59,2.59,0,0,1,.56,1.82v4h-2.4V70.41a1.27,1.27,0,0,0-.21-.83.8.8,0,0,0-.61-.25.88.88,0,0,0-.71.33,2,2,0,0,0-.26,1.18v3h-2.39Z"/><path d="M116,67.61h2.24v6.15a2.5,2.5,0,0,1-.25,1.11,2.2,2.2,0,0,1-.66.86,2.55,2.55,0,0,1-1,.48,6.37,6.37,0,0,1-1.45.14,4.27,4.27,0,0,1-2.58-.56,1.82,1.82,0,0,1-.7-1.5c0-.08,0-.19,0-.32l2.32.26a.76.76,0,0,0,.27.45,1.12,1.12,0,0,0,.66.18,1,1,0,0,0,.77-.28,1.4,1.4,0,0,0,.25-1v-.94a2.22,2.22,0,0,1-.7.6,2.45,2.45,0,0,1-1.19.3,2.37,2.37,0,0,1-2-1.09,3.45,3.45,0,0,1-.55-2,3.17,3.17,0,0,1,.7-2.21,2.39,2.39,0,0,1,1.84-.76A2.22,2.22,0,0,1,116,68.53Zm-2.24,3a1.47,1.47,0,0,0,.29,1,1,1,0,0,0,1.5,0,1.48,1.48,0,0,0,.3-1,1.54,1.54,0,0,0-.31-1,1,1,0,0,0-.78-.36.9.9,0,0,0-.73.33A1.78,1.78,0,0,0,113.78,70.62Z"/><path d="M126.25,73.83H124v-1a3.38,3.38,0,0,1-1,.89,2.71,2.71,0,0,1-1.24.26,2.06,2.06,0,0,1-1.55-.59,2.56,2.56,0,0,1-.56-1.81v-4h2.4V71a1.21,1.21,0,0,0,.22.83.78.78,0,0,0,.61.25.87.87,0,0,0,.7-.33,1.91,1.91,0,0,0,.27-1.18v-3h2.38Z"/><path d="M129.88,69.62l-2.28-.24a2.49,2.49,0,0,1,.37-.94,1.88,1.88,0,0,1,.7-.59,3.07,3.07,0,0,1,.9-.29,8,8,0,0,1,1.24-.09,10,10,0,0,1,1.73.12,2.16,2.16,0,0,1,1.08.5,1.76,1.76,0,0,1,.48.74,2.68,2.68,0,0,1,.18.93V72.5a3.13,3.13,0,0,0,.05.69,3,3,0,0,0,.25.64h-2.24a2.36,2.36,0,0,1-.18-.37,2.54,2.54,0,0,1-.08-.39,3,3,0,0,1-.93.64,3.9,3.9,0,0,1-1.47.26,2.41,2.41,0,0,1-1.69-.52,1.61,1.61,0,0,1-.58-1.27,1.64,1.64,0,0,1,.42-1.16,2.66,2.66,0,0,1,1.53-.68c.89-.18,1.48-.31,1.74-.38a6.46,6.46,0,0,0,.84-.29.84.84,0,0,0-.18-.61.89.89,0,0,0-.64-.18,1.65,1.65,0,0,0-.87.19A1,1,0,0,0,129.88,69.62Zm2.06,1.26c-.32.11-.67.22-1,.31a2.14,2.14,0,0,0-.92.38.6.6,0,0,0-.2.44.61.61,0,0,0,.2.46.81.81,0,0,0,.57.18,1.44,1.44,0,0,0,.74-.2,1.12,1.12,0,0,0,.49-.47,1.54,1.54,0,0,0,.14-.72Z"/><path d="M140.23,67.61h2.23v6.15a2.65,2.65,0,0,1-.25,1.11,2.41,2.41,0,0,1-.66.86,2.68,2.68,0,0,1-1.05.48,6.46,6.46,0,0,1-1.46.14,4.22,4.22,0,0,1-2.57-.56,1.82,1.82,0,0,1-.7-1.5c0-.08,0-.19,0-.32l2.31.26a.76.76,0,0,0,.27.45,1.16,1.16,0,0,0,.66.18,1,1,0,0,0,.77-.28,1.4,1.4,0,0,0,.26-1v-.94a2.34,2.34,0,0,1-.7.6,2.47,2.47,0,0,1-1.19.3,2.38,2.38,0,0,1-2-1.09,3.53,3.53,0,0,1-.54-2,3.12,3.12,0,0,1,.7-2.21,2.38,2.38,0,0,1,1.84-.76,2.22,2.22,0,0,1,2.08,1.06Zm-2.24,3a1.47,1.47,0,0,0,.28,1,1,1,0,0,0,1.51,0,1.48,1.48,0,0,0,.3-1,1.54,1.54,0,0,0-.32-1,1,1,0,0,0-.77-.36.89.89,0,0,0-.73.33A1.78,1.78,0,0,0,138,70.62Z"/><path d="M150.81,71.31H146a1.52,1.52,0,0,0,.31.85,1.13,1.13,0,0,0,.9.41,1.32,1.32,0,0,0,.67-.18,1.46,1.46,0,0,0,.42-.39l2.35.22a3.43,3.43,0,0,1-1.3,1.34,4.77,4.77,0,0,1-2.19.41,4.49,4.49,0,0,1-1.94-.35,2.79,2.79,0,0,1-1.18-1.11,3.33,3.33,0,0,1-.47-1.78,3.15,3.15,0,0,1,.94-2.36,3.55,3.55,0,0,1,2.58-.9,4.61,4.61,0,0,1,2.11.4A2.72,2.72,0,0,1,150.41,69a4.29,4.29,0,0,1,.4,2Zm-2.42-1.14a1.62,1.62,0,0,0-.38-1,1.06,1.06,0,0,0-.79-.3,1.09,1.09,0,0,0-.91.45,1.73,1.73,0,0,0-.27.84Z"/></g></g></svg>