<svg xmlns="http://www.w3.org/2000/svg" viewBox="0 0 163.21 27.32"><defs><style>.cls-1{fill:#fff;}</style></defs><g id="Layer_2" data-name="Layer 2"><g id="svg2"><g id="g6"><path id="path10" class="cls-1" d="M12.13.11A15,15,0,0,0,9,.87a7.88,7.88,0,0,0-2.06,1c0,.07.2.13.53.16a16.87,16.87,0,0,1,5.34,2.24,5.08,5.08,0,0,0,1,.53,5.11,5.11,0,0,0,1-.53A24.8,24.8,0,0,1,18.67,2.4,10.32,10.32,0,0,1,20,2.07c.43-.06.66-.14.66-.2,0-.25-2-1.09-3.32-1.43A13.88,13.88,0,0,0,12.13.11Z"/><path id="path12" class="cls-1" d="M4,4.06a13.41,13.41,0,0,0-3.88,8,12.86,12.86,0,0,0,.18,4.39A13.32,13.32,0,0,0,2.16,21c.55.84.65.83.71-.06C3.14,17.63,5.71,13,10,8.33a5.82,5.82,0,0,0,.69-.85A17.36,17.36,0,0,0,8.45,5.29,9.9,9.9,0,0,0,5.07,3.2C4.89,3.2,4.65,3.39,4,4.06Z"/><path id="path14" class="cls-1" d="M21.89,3.44A17.05,17.05,0,0,0,18,6.39a7.34,7.34,0,0,0-1,1.1,7.18,7.18,0,0,0,.92,1.16c3.63,4.07,5.94,8,6.65,11.22a6.55,6.55,0,0,1,.17,1.27c0,.47,0,.53.16.53a6.71,6.71,0,0,0,1.44-2.25,12.62,12.62,0,0,0,1.24-6.28,12.75,12.75,0,0,0-2.4-7.31A11.3,11.3,0,0,0,22.61,3.2,2.78,2.78,0,0,0,21.89,3.44Z"/><path id="path16" class="cls-1" d="M12.86,10.93a56.24,56.24,0,0,0-6.12,6.39c-1.59,2-3.3,4.75-3.3,5.26a8.18,8.18,0,0,0,1.68,1.73,13.93,13.93,0,0,0,10.73,2.86,14.29,14.29,0,0,0,7.9-4c.34-.33.39-.42.39-.72,0-1.56-3-5.43-8.07-10.27a14.86,14.86,0,0,0-2.24-2A3.77,3.77,0,0,0,12.86,10.93Z"/></g><polygon id="polygon8" class="cls-1" points="131.38 8.07 143.66 24.72 145.97 24.73 145.97 4.01 143.67 4.01 143.67 21.02 131.13 3.99 129.08 3.99 129.08 24.71 131.38 24.71 131.38 8.07"/><path id="path10-1" class="cls-1" d="M117.09,3.53c-5.82,0-9.9,4.45-9.9,10.83s4.08,10.85,9.9,10.85S127,20.75,127,14.36s-4.06-10.83-9.88-10.83m0,19.48c-4.44,0-7.55-3.56-7.55-8.65s3.11-8.64,7.55-8.64,7.52,3.55,7.52,8.64S121.52,23,117.09,23"/><polygon id="polygon12" class="cls-1" points="163.07 6.02 163.07 3.99 148.57 3.99 148.57 24.73 163.22 24.73 163.22 22.7 150.89 22.7 150.89 15.03 162.3 15.03 162.3 13 150.89 13 150.89 6.02 163.07 6.02"/><polygon id="polygon14" class="cls-1" points="88.15 4.01 94.08 12.06 100 4.01 102.72 4.01 95.45 13.88 103.42 24.75 100.7 24.75 94.08 15.75 87.46 24.75 84.73 24.75 92.69 13.88 85.42 4.01 88.15 4.01"/><path id="path16-7" class="cls-1" d="M64.23,14.67a5.94,5.94,0,0,0-1.35-.87,4.71,4.71,0,0,0,2.49-4.15c0-1.33-.49-5.64-6.74-5.64H50.21V13H47.4c-.36.47-1.19,1.61-1.51,2.08h4.32v9.71h8.42c4.56,0,7.39-2.31,7.39-6a5.09,5.09,0,0,0-1.79-4m-11.7-8.5h6.1c1.65,0,4.41.41,4.41,3.3C63,11.65,61.43,13,58.63,13h-6.1Zm6.1,16.41h-6.1V15h6.1c2.31,0,5.07.64,5.07,3.62,0,3.42-3.18,3.93-5.07,3.93"/><path id="path18" class="cls-1" d="M77,3.53c-5.83,0-9.9,4.45-9.9,10.83S71.15,25.2,77,25.2s9.88-4.45,9.88-10.84S82.8,3.53,77,3.53M77,23c-4.44,0-7.55-3.56-7.55-8.65S72.54,5.72,77,5.72s7.52,3.55,7.52,8.64S81.41,23,77,23"/><polygon id="polygon20" class="cls-1" points="31.08 4.01 38.35 13.88 30.38 24.74 33.11 24.74 39.73 15.75 46.35 24.74 49.07 24.74 41.1 13.88 48.38 4.01 45.65 4.01 39.72 12.06 33.8 4.01 31.08 4.01"/></g></g></svg>